<svg xmlns="http://www.w3.org/2000/svg" width="880" height="430" viewBox="0 0 880 430" role="img" aria-labelledby="t d">
<title id="t">Digital Templars: 10 lat w liczbach</title>
<desc id="d">Od 2016 roku ponad 75 projektów i ponad 6700 zmian w kodzie. Najwięcej zmian w 2020 roku: 1681. Główna technologia: C# i .NET (44 projekty).</desc>
<defs><pattern id="h" width="6" height="6" patternUnits="userSpaceOnUse" patternTransform="rotate(45)"><rect width="6" height="6" fill="#2a3550"/><rect width="2.5" height="6" fill="#7f9bd6"/></pattern></defs>
<rect x="0.5" y="0.5" width="879" height="429" rx="10" fill="#0d1117" stroke="#30363d"/>
<text x="24.0" y="70" font-family="'Segoe UI',-apple-system,BlinkMacSystemFont,'Helvetica Neue',Arial,sans-serif" font-size="38" font-weight="700" fill="#ff7b61">10</text>
<text x="24.0" y="94" font-family="'Segoe UI',-apple-system,BlinkMacSystemFont,'Helvetica Neue',Arial,sans-serif" font-size="14" fill="#b1bac4">lat na rynku</text>
<line x1="232.0" y1="30" x2="232.0" y2="96" stroke="#21262d"/>
<text x="248.0" y="70" font-family="'Segoe UI',-apple-system,BlinkMacSystemFont,'Helvetica Neue',Arial,sans-serif" font-size="38" font-weight="700" fill="#e6edf3">2016</text>
<text x="248.0" y="94" font-family="'Segoe UI',-apple-system,BlinkMacSystemFont,'Helvetica Neue',Arial,sans-serif" font-size="14" fill="#b1bac4">pierwsza linijka kodu</text>
<line x1="440.0" y1="30" x2="440.0" y2="96" stroke="#21262d"/>
<text x="456.0" y="70" font-family="'Segoe UI',-apple-system,BlinkMacSystemFont,'Helvetica Neue',Arial,sans-serif" font-size="38" font-weight="700" fill="#e6edf3">75+</text>
<text x="456.0" y="94" font-family="'Segoe UI',-apple-system,BlinkMacSystemFont,'Helvetica Neue',Arial,sans-serif" font-size="14" fill="#b1bac4">projektów i aplikacji</text>
<line x1="648.0" y1="30" x2="648.0" y2="96" stroke="#21262d"/>
<text x="664.0" y="70" font-family="'Segoe UI',-apple-system,BlinkMacSystemFont,'Helvetica Neue',Arial,sans-serif" font-size="38" font-weight="700" fill="#e6edf3">6 700+</text>
<text x="664.0" y="94" font-family="'Segoe UI',-apple-system,BlinkMacSystemFont,'Helvetica Neue',Arial,sans-serif" font-size="14" fill="#b1bac4">zmian w kodzie</text>
<line x1="24" y1="124" x2="856" y2="124" stroke="#21262d"/>
<text x="24" y="156" font-family="'Segoe UI',-apple-system,BlinkMacSystemFont,'Helvetica Neue',Arial,sans-serif" font-size="15" font-weight="600" fill="#e6edf3">Zmiany w kodzie rok po roku</text>
<line x1="60" y1="370.0" x2="520" y2="370.0" stroke="#21262d"/>
<text x="52" y="374.0" text-anchor="end" font-family="'SFMono-Regular',Consolas,'Liberation Mono',Menlo,monospace" font-size="10" fill="#8b949e">0</text>
<line x1="60" y1="320.0" x2="520" y2="320.0" stroke="#21262d"/>
<text x="52" y="324.0" text-anchor="end" font-family="'SFMono-Regular',Consolas,'Liberation Mono',Menlo,monospace" font-size="10" fill="#8b949e">500</text>
<line x1="60" y1="270.0" x2="520" y2="270.0" stroke="#21262d"/>
<text x="52" y="274.0" text-anchor="end" font-family="'SFMono-Regular',Consolas,'Liberation Mono',Menlo,monospace" font-size="10" fill="#8b949e">1 000</text>
<line x1="60" y1="220.0" x2="520" y2="220.0" stroke="#21262d"/>
<text x="52" y="224.0" text-anchor="end" font-family="'SFMono-Regular',Consolas,'Liberation Mono',Menlo,monospace" font-size="10" fill="#8b949e">1 500</text>
<path d="M68.8,370 V370.0 Q68.8,367.4 71.4,367.4 H90.4 Q93.0,367.4 93.0,370.0 V370 Z" fill="#7f9bd6"/>
<text x="80.9" y="361.4" text-anchor="middle" font-family="'SFMono-Regular',Consolas,'Liberation Mono',Menlo,monospace" font-size="10" fill="#b1bac4">26</text>
<text x="80.9" y="388" text-anchor="middle" font-family="'SFMono-Regular',Consolas,'Liberation Mono',Menlo,monospace" font-size="10" fill="#8b949e">’16</text>
<text x="122.7" y="364" text-anchor="middle" font-family="'SFMono-Regular',Consolas,'Liberation Mono',Menlo,monospace" font-size="10" fill="#8b949e">—</text>
<text x="122.7" y="388" text-anchor="middle" font-family="'SFMono-Regular',Consolas,'Liberation Mono',Menlo,monospace" font-size="10" fill="#8b949e">’17</text>
<path d="M152.4,370 V300.7 Q152.4,297.7 155.4,297.7 H173.7 Q176.7,297.7 176.7,300.7 V370 Z" fill="#7f9bd6"/>
<text x="164.5" y="291.7" text-anchor="middle" font-family="'SFMono-Regular',Consolas,'Liberation Mono',Menlo,monospace" font-size="10" fill="#b1bac4">723</text>
<text x="164.5" y="388" text-anchor="middle" font-family="'SFMono-Regular',Consolas,'Liberation Mono',Menlo,monospace" font-size="10" fill="#8b949e">’18</text>
<path d="M194.2,370 V270.1 Q194.2,267.1 197.2,267.1 H215.5 Q218.5,267.1 218.5,270.1 V370 Z" fill="#7f9bd6"/>
<text x="206.4" y="261.1" text-anchor="middle" font-family="'SFMono-Regular',Consolas,'Liberation Mono',Menlo,monospace" font-size="10" fill="#b1bac4">1 029</text>
<text x="206.4" y="388" text-anchor="middle" font-family="'SFMono-Regular',Consolas,'Liberation Mono',Menlo,monospace" font-size="10" fill="#8b949e">’19</text>
<path d="M236.1,370 V204.9 Q236.1,201.9 239.1,201.9 H257.3 Q260.3,201.9 260.3,204.9 V370 Z" fill="#7f9bd6"/>
<text x="248.2" y="195.9" text-anchor="middle" font-family="'SFMono-Regular',Consolas,'Liberation Mono',Menlo,monospace" font-size="10" fill="#ff7b61">1 681</text>
<text x="248.2" y="388" text-anchor="middle" font-family="'SFMono-Regular',Consolas,'Liberation Mono',Menlo,monospace" font-size="10" fill="#8b949e">’20</text>
<path d="M277.9,370 V313.3 Q277.9,310.3 280.9,310.3 H299.1 Q302.1,310.3 302.1,313.3 V370 Z" fill="#7f9bd6"/>
<text x="290.0" y="304.3" text-anchor="middle" font-family="'SFMono-Regular',Consolas,'Liberation Mono',Menlo,monospace" font-size="10" fill="#b1bac4">597</text>
<text x="290.0" y="388" text-anchor="middle" font-family="'SFMono-Regular',Consolas,'Liberation Mono',Menlo,monospace" font-size="10" fill="#8b949e">’21</text>
<path d="M319.7,370 V325.5 Q319.7,322.5 322.7,322.5 H340.9 Q343.9,322.5 343.9,325.5 V370 Z" fill="#7f9bd6"/>
<text x="331.8" y="316.5" text-anchor="middle" font-family="'SFMono-Regular',Consolas,'Liberation Mono',Menlo,monospace" font-size="10" fill="#b1bac4">475</text>
<text x="331.8" y="388" text-anchor="middle" font-family="'SFMono-Regular',Consolas,'Liberation Mono',Menlo,monospace" font-size="10" fill="#8b949e">’22</text>
<path d="M361.5,370 V325.5 Q361.5,322.5 364.5,322.5 H382.8 Q385.8,322.5 385.8,325.5 V370 Z" fill="#7f9bd6"/>
<text x="373.6" y="316.5" text-anchor="middle" font-family="'SFMono-Regular',Consolas,'Liberation Mono',Menlo,monospace" font-size="10" fill="#b1bac4">475</text>
<text x="373.6" y="388" text-anchor="middle" font-family="'SFMono-Regular',Consolas,'Liberation Mono',Menlo,monospace" font-size="10" fill="#8b949e">’23</text>
<path d="M403.3,370 V301.6 Q403.3,298.6 406.3,298.6 H424.6 Q427.6,298.6 427.6,301.6 V370 Z" fill="#7f9bd6"/>
<text x="415.5" y="292.6" text-anchor="middle" font-family="'SFMono-Regular',Consolas,'Liberation Mono',Menlo,monospace" font-size="10" fill="#b1bac4">714</text>
<text x="415.5" y="388" text-anchor="middle" font-family="'SFMono-Regular',Consolas,'Liberation Mono',Menlo,monospace" font-size="10" fill="#8b949e">’24</text>
<path d="M445.1,370 V323.8 Q445.1,320.8 448.1,320.8 H466.4 Q469.4,320.8 469.4,323.8 V370 Z" fill="#7f9bd6"/>
<text x="457.3" y="314.8" text-anchor="middle" font-family="'SFMono-Regular',Consolas,'Liberation Mono',Menlo,monospace" font-size="10" fill="#b1bac4">492</text>
<text x="457.3" y="388" text-anchor="middle" font-family="'SFMono-Regular',Consolas,'Liberation Mono',Menlo,monospace" font-size="10" fill="#8b949e">’25</text>
<path d="M487.0,370 V318.0 Q487.0,315.0 490.0,315.0 H508.2 Q511.2,315.0 511.2,318.0 V370 Z" fill="url(#h)"/>
<text x="499.1" y="309.0" text-anchor="middle" font-family="'SFMono-Regular',Consolas,'Liberation Mono',Menlo,monospace" font-size="10" fill="#b1bac4">550</text>
<text x="499.1" y="388" text-anchor="middle" font-family="'SFMono-Regular',Consolas,'Liberation Mono',Menlo,monospace" font-size="10" fill="#8b949e">’26</text>
<line x1="60" y1="370" x2="520" y2="370" stroke="#8b949e"/>
<text x="520" y="406" text-anchor="end" font-family="'Segoe UI',-apple-system,BlinkMacSystemFont,'Helvetica Neue',Arial,sans-serif" font-size="11" fill="#8b949e">2026: do 30 września</text>
<line x1="544" y1="140" x2="544" y2="400" stroke="#21262d"/>
<text x="566" y="156" font-family="'Segoe UI',-apple-system,BlinkMacSystemFont,'Helvetica Neue',Arial,sans-serif" font-size="15" font-weight="600" fill="#e6edf3">Projekty według technologii</text>
<text x="566" y="201" font-family="'Segoe UI',-apple-system,BlinkMacSystemFont,'Helvetica Neue',Arial,sans-serif" font-size="13" fill="#b1bac4">C# / .NET</text>
<rect x="662" y="189" width="170" height="14" fill="#161b22"/>
<rect x="662" y="189" width="170.0" height="14" rx="2" fill="#7f9bd6"/>
<text x="842" y="201" font-family="'SFMono-Regular',Consolas,'Liberation Mono',Menlo,monospace" font-size="12" fill="#e6edf3">44</text>
<text x="566" y="231" font-family="'Segoe UI',-apple-system,BlinkMacSystemFont,'Helvetica Neue',Arial,sans-serif" font-size="13" fill="#b1bac4">PHP</text>
<rect x="662" y="219" width="170" height="14" fill="#161b22"/>
<rect x="662" y="219" width="50.2" height="14" rx="2" fill="#7f9bd6"/>
<text x="842" y="231" font-family="'SFMono-Regular',Consolas,'Liberation Mono',Menlo,monospace" font-size="12" fill="#e6edf3">13</text>
<text x="566" y="261" font-family="'Segoe UI',-apple-system,BlinkMacSystemFont,'Helvetica Neue',Arial,sans-serif" font-size="13" fill="#b1bac4">JavaScript</text>
<rect x="662" y="249" width="170" height="14" fill="#161b22"/>
<rect x="662" y="249" width="30.9" height="14" rx="2" fill="#7f9bd6"/>
<text x="842" y="261" font-family="'SFMono-Regular',Consolas,'Liberation Mono',Menlo,monospace" font-size="12" fill="#e6edf3">8</text>
<text x="566" y="291" font-family="'Segoe UI',-apple-system,BlinkMacSystemFont,'Helvetica Neue',Arial,sans-serif" font-size="13" fill="#b1bac4">TypeScript</text>
<rect x="662" y="279" width="170" height="14" fill="#161b22"/>
<rect x="662" y="279" width="23.2" height="14" rx="2" fill="#7f9bd6"/>
<text x="842" y="291" font-family="'SFMono-Regular',Consolas,'Liberation Mono',Menlo,monospace" font-size="12" fill="#e6edf3">6</text>
<text x="566" y="321" font-family="'Segoe UI',-apple-system,BlinkMacSystemFont,'Helvetica Neue',Arial,sans-serif" font-size="13" fill="#b1bac4">WordPress</text>
<rect x="662" y="309" width="170" height="14" fill="#161b22"/>
<rect x="662" y="309" width="15.5" height="14" rx="2" fill="#7f9bd6"/>
<text x="842" y="321" font-family="'SFMono-Regular',Consolas,'Liberation Mono',Menlo,monospace" font-size="12" fill="#e6edf3">4</text>
<text x="566" y="351" font-family="'Segoe UI',-apple-system,BlinkMacSystemFont,'Helvetica Neue',Arial,sans-serif" font-size="13" fill="#b1bac4">Kotlin</text>
<rect x="662" y="339" width="170" height="14" fill="#161b22"/>
<rect x="662" y="339" width="3.8" height="14" rx="2" fill="#7f9bd6"/>
<text x="842" y="351" font-family="'SFMono-Regular',Consolas,'Liberation Mono',Menlo,monospace" font-size="12" fill="#e6edf3">1</text>
</svg>